<?xml version="1.0" encoding="UTF-8"?>
<svg width="24px" height="24px" viewBox="0 0 24 24" version="1.1" xmlns="http://www.w3.org/2000/svg" xmlns:xlink="http://www.w3.org/1999/xlink">
    <!-- Generator: Sketch 57.1 (83088) - https://sketch.com -->
    <title>Shape Copy</title>
    <desc>Created with Sketch.</desc>
    <g id="Elements" stroke="none" stroke-width="1" fill="none" fill-rule="evenodd" opacity="0.7">
        <g id="Search----Search" transform="translate(-44.000000, -9.000000)" fill="#FFFFFF">
            <g id="search_click">
                <g id="Group-2" transform="translate(28.000000, 0.000000)">
                    <path d="M39.6486602,30.2121992 L35.1406344,25.6991902 C36.3776142,23.967618 37.1148752,21.855558 37.1148752,19.5691077 C37.1148752,13.7402448 32.3798645,9 26.5574376,9 C20.7350108,9 16,13.7402448 16,19.5691077 C16,25.3979706 20.7350108,30.1382154 26.5574376,30.1382154 C28.8272867,30.1382154 30.9264572,29.4107085 32.6490791,28.1864535 L37.1623837,32.7047471 C37.5037408,33.0464816 38.2234062,33.1187038 38.5665229,32.7769693 L39.810541,31.5315761 C40.1518981,31.1863186 39.991777,30.5574567 39.6486602,30.2121992 L39.6486602,30.2121992 Z M17.7578134,19.5691077 C17.7578134,14.7126027 21.7045355,10.761518 26.555678,10.761518 C31.4068206,10.761518 35.3535427,14.7126027 35.3535427,19.5691077 C35.3535427,24.4256127 31.4068206,28.3766975 26.555678,28.3766975 C21.7045355,28.3766975 17.7578134,24.4256127 17.7578134,19.5691077 L17.7578134,19.5691077 Z" id="Shape-Copy"></path>
                </g>
            </g>
        </g>
    </g>
</svg>